<svg xmlns="http://www.w3.org/2000/svg" viewBox="0 0 760 620" role="img" aria-labelledby="title desc">
  <title id="title">Commercial building inspection illustration</title>
  <desc id="desc">Blueprint-style commercial building with roof, envelope, mechanical, and site inspection markers.</desc>
  <defs>
    <linearGradient id="glass" x1="0" y1="0" x2="1" y2="1">
      <stop offset="0" stop-color="#29465b"/>
      <stop offset="1" stop-color="#142a3a"/>
    </linearGradient>
    <pattern id="grid" width="32" height="32" patternUnits="userSpaceOnUse">
      <path d="M32 0H0V32" fill="none" stroke="#56b6c8" stroke-opacity=".12" stroke-width="1"/>
    </pattern>
  </defs>
  <rect width="760" height="620" rx="28" fill="url(#grid)"/>
  <path d="M70 540H700" stroke="#56b6c8" stroke-opacity=".5" stroke-width="2"/>
  <path d="M155 508V184L222 135H556L620 184V508" fill="url(#glass)" stroke="#56b6c8" stroke-width="4"/>
  <path d="M222 135V508M556 135V508" stroke="#56b6c8" stroke-opacity=".55" stroke-width="2"/>
  <path d="M155 184H620M155 280H620M155 376H620" stroke="#56b6c8" stroke-opacity=".5" stroke-width="2"/>
  <g fill="#dcebf0" fill-opacity=".12" stroke="#56b6c8" stroke-opacity=".45">
    <rect x="180" y="210" width="58" height="42"/><rect x="258" y="210" width="58" height="42"/><rect x="336" y="210" width="58" height="42"/><rect x="414" y="210" width="58" height="42"/><rect x="492" y="210" width="58" height="42"/>
    <rect x="180" y="306" width="58" height="42"/><rect x="258" y="306" width="58" height="42"/><rect x="336" y="306" width="58" height="42"/><rect x="414" y="306" width="58" height="42"/><rect x="492" y="306" width="58" height="42"/>
    <rect x="180" y="402" width="58" height="42"/><rect x="258" y="402" width="58" height="42"/><rect x="414" y="402" width="58" height="42"/><rect x="492" y="402" width="58" height="42"/>
  </g>
  <rect x="336" y="414" width="58" height="94" fill="#101d2a" stroke="#c8a85c" stroke-width="3"/>
  <path d="M115 508H660L700 540H70Z" fill="#172d3d" stroke="#56b6c8" stroke-width="2"/>
  <g fill="#c8a85c" stroke="#101d2a" stroke-width="3">
    <circle cx="250" cy="135" r="12"/><circle cx="620" cy="278" r="12"/><circle cx="500" cy="470" r="12"/><circle cx="128" cy="520" r="12"/>
  </g>
  <g fill="none" stroke="#c8a85c" stroke-width="2">
    <path d="M250 123V76H118"/><path d="M632 278H700V238"/><path d="M512 470H694V430"/><path d="M116 520H52V476"/>
  </g>
  <g fill="#f6f3ec" font-family="Arial, sans-serif" font-size="17" font-weight="700" letter-spacing="1.5">
    <text x="118" y="64">ROOF SYSTEM</text>
    <text x="566" y="226">ENVELOPE</text>
    <text x="545" y="416">MECHANICAL</text>
    <text x="52" y="462">SITE + DRAINAGE</text>
  </g>
  <g fill="#101d2a" font-family="Arial, sans-serif" font-size="13" font-weight="800" text-anchor="middle">
    <text x="250" y="140">01</text><text x="620" y="283">02</text><text x="500" y="475">03</text><text x="128" y="525">04</text>
  </g>
</svg>
